<!-- icon666.com - MILLIONS vector ICONS FREE --><svg version="1.1" id="Capa_1" xmlns="http://www.w3.org/2000/svg" xmlns:xlink="http://www.w3.org/1999/xlink" x="0px" y="0px" viewBox="0 0 512.001 512.001" style="enable-background:new 0 0 512.001 512.001;" xml:space="preserve"><g><g><path d="M486.001,108.1h-52.95c-3.752,0-6.926,2.772-7.432,6.489l-4.407,32.4H298.569v-43.911H331.4 c4.938,0,9.273-2.977,11.048-7.584c1.773-4.607,0.553-9.723-3.109-13.033L251.514,3.067c-4.524-4.089-11.349-4.089-15.875,0.001 L147.816,82.46c-3.663,3.31-4.883,8.427-3.109,13.033c1.774,4.607,6.11,7.584,11.047,7.584h32.831v43.911H54.831 c-2.182,0-4.256,0.95-5.68,2.602c-1.425,1.653-2.06,3.844-1.738,6.002l24.782,166.463c0.555,3.723,3.755,6.396,7.409,6.396 c0.367,0,0.74-0.027,1.114-0.083c4.097-0.61,6.924-4.426,6.314-8.523L63.53,161.989h125.054v4.02 c0,6.527,5.31,11.837,11.837,11.837h86.311c6.527,0,11.837-5.31,11.837-11.837v-4.02h120.492l-1.079,7.253 c-0.61,4.097,2.217,7.912,6.313,8.522c0.375,0.056,0.746,0.083,1.114,0.083c3.653,0,6.854-2.674,7.408-6.397l2.36-15.857 c0.001-0.01,0.001-0.02,0.003-0.031c0.003-0.02,0.008-0.039,0.011-0.059l4.407-32.404h46.403c4.143,0,7.5-3.358,7.5-7.5 C493.501,111.457,490.144,108.1,486.001,108.1z M283.569,99.915v62.931h-79.985V99.915c0-6.527-5.31-11.837-11.837-11.837h-27.779 l79.609-71.966l79.609,71.966h-27.779C288.88,88.078,283.569,93.388,283.569,99.915z"></path></g></g><g><g><path d="M129.951,181.24c-13.104,0-23.765,10.661-23.765,23.765v124.697c0,13.104,10.661,23.765,23.765,23.765 s23.765-10.661,23.765-23.765V205.005C153.716,191.901,143.055,181.24,129.951,181.24z M138.716,329.702 c0,4.833-3.932,8.765-8.765,8.765c-4.833,0-8.765-3.932-8.765-8.765V205.005c0-4.833,3.932-8.765,8.765-8.765 c4.833,0,8.765,3.932,8.765,8.765V329.702z"></path></g></g><g><g><path d="M205.702,181.24c-13.104,0-23.765,10.661-23.765,23.765v124.697c0,13.104,10.661,23.765,23.765,23.765 s23.765-10.661,23.765-23.765V205.005C229.467,191.901,218.806,181.24,205.702,181.24z M214.467,329.702 c0,4.833-3.932,8.765-8.765,8.765c-4.833,0-8.765-3.932-8.765-8.765V205.005c0-4.833,3.932-8.765,8.765-8.765 c4.833,0,8.765,3.932,8.765,8.765V329.702z"></path></g></g><g><g><path d="M281.452,181.24c-13.104,0-23.765,10.661-23.765,23.765v124.697c0,13.104,10.661,23.765,23.765,23.765 c13.105-0.001,23.766-10.661,23.766-23.765V205.005C305.218,191.901,294.557,181.24,281.452,181.24z M290.219,329.702 c0,4.833-3.933,8.765-8.766,8.765c-4.833,0-8.765-3.932-8.765-8.765V205.005c0-4.833,3.932-8.765,8.765-8.765 s8.766,3.932,8.766,8.765V329.702z"></path></g></g><g><g><path d="M357.203,181.24c-13.104,0-23.766,10.661-23.766,23.765v124.697c0,13.104,10.661,23.765,23.766,23.765 c13.104-0.001,23.765-10.661,23.765-23.765V205.005C380.968,191.901,370.307,181.24,357.203,181.24z M365.969,329.702 c0,4.833-3.932,8.765-8.765,8.765s-8.766-3.932-8.766-8.765V205.005c0-4.833,3.933-8.765,8.766-8.765 c4.833,0,8.765,3.932,8.765,8.765V329.702z"></path></g></g><g><g><path d="M412.044,448.528l-1.87-13.905c-0.003-0.026-0.01-0.05-0.014-0.075c-0.004-0.025-0.004-0.05-0.008-0.075l-3.648-23.509 h2.222c4.143,0,7.5-3.358,7.5-7.5v-29.999c0-4.142-3.357-7.5-7.5-7.5h-4.867l24.507-164.614c0.61-4.097-2.217-7.912-6.313-8.523 c-4.088-0.611-7.913,2.216-8.522,6.314l-24.836,166.822H93.897l-2.186-14.683c-0.61-4.097-4.422-6.924-8.523-6.314 c-4.097,0.61-6.924,4.426-6.314,8.523l1.857,12.474h-14.36c-4.142,0-7.5,3.358-7.5,7.5v29.999c0,4.142,3.358,7.5,7.5,7.5h326.953 l2.662,17.159h-247.77c-4.142,0-7.5,3.358-7.5,7.5c0,4.142,3.358,7.5,7.5,7.5h249.966l0.996,7.41 c-11.854,4.633-20.276,16.171-20.276,29.645c0,17.547,14.275,31.823,31.823,31.823c17.548,0,31.824-14.276,31.824-31.823 C440.551,463.751,428.038,450.193,412.044,448.528z M71.872,395.964v-15h329.35h0.004v15H71.872z M408.727,497.001 c-9.276,0-16.823-7.547-16.823-16.823s7.547-16.823,16.823-16.823c9.277,0,16.824,7.547,16.824,16.823 S418.004,497.001,408.727,497.001z"></path></g></g><g><g><path d="M113.686,428.123H61.261c-0.058,0-0.113,0.007-0.171,0.009c-0.159,0.004-0.317,0.01-0.474,0.024 c-0.1,0.009-0.198,0.02-0.296,0.033c-0.141,0.018-0.282,0.039-0.421,0.064c-0.114,0.021-0.227,0.045-0.339,0.072 c-0.118,0.028-0.235,0.057-0.352,0.091c-0.127,0.036-0.253,0.076-0.377,0.119c-0.099,0.034-0.197,0.069-0.294,0.107 c-0.133,0.052-0.263,0.107-0.392,0.166c-0.088,0.041-0.175,0.083-0.262,0.126c-0.128,0.065-0.254,0.133-0.377,0.205 c-0.087,0.05-0.172,0.102-0.257,0.156c-0.115,0.073-0.227,0.148-0.337,0.227c-0.09,0.064-0.178,0.13-0.266,0.199 c-0.098,0.076-0.193,0.155-0.287,0.235c-0.093,0.08-0.183,0.163-0.272,0.247c-0.082,0.078-0.162,0.157-0.24,0.239 c-0.091,0.095-0.179,0.192-0.265,0.292c-0.07,0.081-0.138,0.164-0.205,0.248c-0.083,0.105-0.163,0.212-0.24,0.322 c-0.064,0.09-0.125,0.182-0.185,0.275c-0.069,0.107-0.135,0.216-0.199,0.327c-0.061,0.107-0.119,0.216-0.175,0.326 c-0.052,0.103-0.102,0.206-0.15,0.311c-0.058,0.128-0.111,0.259-0.162,0.39c-0.036,0.095-0.072,0.189-0.105,0.286 c-0.049,0.146-0.093,0.294-0.133,0.443c-0.016,0.058-0.037,0.113-0.052,0.172l-3.566,14.523c-0.029,0-0.057-0.002-0.086-0.002 c-17.548,0-31.824,14.276-31.824,31.823s14.277,31.823,31.825,31.823c17.548,0,31.824-14.276,31.824-31.823 c0-12.266-6.98-22.926-17.172-28.236l2.166-8.82h46.544c4.142,0,7.5-3.358,7.5-7.5 C121.186,431.481,117.828,428.123,113.686,428.123z M67.149,480.178c0,9.276-7.547,16.823-16.824,16.823 c-9.277,0-16.824-7.547-16.824-16.823s7.547-16.823,16.824-16.823C59.602,463.355,67.149,470.902,67.149,480.178z"></path></g></g></svg>