<!-- icon666.com - MILLIONS vector ICONS FREE --><svg id="Capa_1" enable-background="new 0 0 512 512" viewBox="0 0 512 512" xmlns="http://www.w3.org/2000/svg"><g><path d="m191.733 94.267h305.267c8.284 0 15-6.716 15-15s-6.716-15-15-15h-305.267c-8.284 0-15 6.716-15 15s6.716 15 15 15z"></path><path d="m497 241h-305.267c-8.284 0-15 6.716-15 15s6.716 15 15 15h305.267c8.284 0 15-6.716 15-15s-6.716-15-15-15z"></path><path d="m497 417.733h-305.267c-8.284 0-15 6.716-15 15s6.716 15 15 15h305.267c8.284 0 15-6.716 15-15s-6.716-15-15-15z"></path><path d="m63.2 16.067c-34.849 0-63.2 28.351-63.2 63.2s28.352 63.2 63.2 63.2 63.2-28.352 63.2-63.2-28.351-63.2-63.2-63.2zm0 96.4c-18.307 0-33.2-14.894-33.2-33.2s14.894-33.2 33.2-33.2 33.2 14.893 33.2 33.2-14.893 33.2-33.2 33.2z"></path><path d="m63.2 192.8c-34.848 0-63.2 28.351-63.2 63.2s28.352 63.2 63.2 63.2 63.2-28.352 63.2-63.2-28.351-63.2-63.2-63.2zm0 96.4c-18.306 0-33.2-14.893-33.2-33.2s14.894-33.2 33.2-33.2 33.2 14.894 33.2 33.2-14.893 33.2-33.2 33.2z"></path><path d="m63.2 369.533c-34.849 0-63.2 28.352-63.2 63.2s28.352 63.2 63.2 63.2 63.2-28.351 63.2-63.2-28.351-63.2-63.2-63.2zm0 96.4c-18.307 0-33.2-14.893-33.2-33.2s14.894-33.2 33.2-33.2 33.2 14.894 33.2 33.2-14.893 33.2-33.2 33.2z"></path></g></svg>