<svg width="24" height="24" viewBox="0 0 24 24" fill="none" xmlns="http://www.w3.org/2000/svg">
<rect width="24" height="24" rx="12" fill="#E2E4EA"/>
<path fill-rule="evenodd" clip-rule="evenodd" d="M12 5.69998C10.3412 5.69998 8.09501 6.49974 6.93676 8.2529L6.82495 8.42214V11.325H6.13817L5.95328 11.4729C5.29387 12.0004 4.57495 12.8507 4.57495 14.25C4.57495 15.6492 5.29387 16.4996 5.95328 17.0271L6.13817 17.175H9.29995L9.29995 11.325H8.17495V8.83835C9.05278 7.66713 10.7156 7.04998 12 7.04998C13.3349 7.04998 14.9683 7.53701 15.8249 8.81933V11.325H14.6999V17.175H17.8617L18.0466 17.0271C18.706 16.4995 19.4249 15.6492 19.4249 14.25C19.4249 12.8507 18.706 12.0004 18.0466 11.4729L17.8617 11.325H17.1749V8.44L17.0806 8.28086C15.9069 6.3002 13.6142 5.69998 12 5.69998ZM6.62349 15.825H7.94995V12.675H6.62349C6.23479 13.0316 5.92495 13.5069 5.92495 14.25C5.92495 14.9931 6.23479 15.4684 6.62349 15.825ZM16.0499 12.675H17.3764C17.7651 13.0316 18.0749 13.5068 18.0749 14.25C18.0749 14.9931 17.7651 15.4684 17.3764 15.825H16.0499L16.0499 12.675Z" fill="#1A2141"/>
</svg>
