<svg width="32" height="32" viewBox="0 0 32 32" fill="none" xmlns="http://www.w3.org/2000/svg">
<path fill-rule="evenodd" clip-rule="evenodd" d="M15.9995 6.77909L18.0165 10.8659L20.4616 9.65918L18.0165 10.8659C18.7448 12.3416 20.1526 13.3645 21.7812 13.6011L26.2912 14.2564L23.0277 17.4376L25.1218 19.5858L29.8362 14.9904C31.0233 13.8333 30.3682 11.8174 28.7278 11.579L22.2126 10.6323C21.5611 10.5376 20.998 10.1285 20.7067 9.5382L17.793 3.6344C17.0594 2.14791 14.9397 2.14791 14.2061 3.6344L11.2924 9.5382L13.9826 10.8659L15.9995 6.77909ZM5.70782 14.2564L10.2179 13.6011C11.8464 13.3645 13.2543 12.3416 13.9826 10.8659L11.2924 9.5382C11.001 10.1285 10.4379 10.5376 9.78648 10.6323L3.27125 11.579C1.63081 11.8174 0.975798 13.8333 2.16283 14.9904L6.87729 19.5858C7.34866 20.0453 7.56376 20.7073 7.45248 21.3561L6.33955 27.845C6.05933 29.4788 7.77419 30.7247 9.24145 29.9534L15.0688 26.8897C15.6515 26.5834 16.3476 26.5834 16.9302 26.8897L22.7576 29.9534C24.2249 30.7247 25.9397 29.4788 25.6595 27.845L24.5466 21.3561C24.4353 20.7073 24.6504 20.0453 25.1218 19.5858L23.0277 17.4376C21.8493 18.5863 21.3116 20.2413 21.5897 21.8632L22.3602 26.3551L18.3262 24.2343C16.8696 23.4685 15.1294 23.4685 13.6728 24.2343L9.6389 26.3551L10.4093 21.8632C10.6875 20.2413 10.1498 18.5863 8.97133 17.4376L5.70782 14.2564Z" fill="#B34D00"/>
</svg>
